<svg xmlns="http://www.w3.org/2000/svg" viewBox="0 0 512 512" width="512" height="512">
  <defs>
    <linearGradient id="bg" x1="86" y1="56" x2="424" y2="466" gradientUnits="userSpaceOnUse">
      <stop offset="0" stop-color="#8EE7FF"/>
      <stop offset="0.44" stop-color="#3694FF"/>
      <stop offset="1" stop-color="#1237A6"/>
    </linearGradient>
    <linearGradient id="glass" x1="150" y1="120" x2="348" y2="388" gradientUnits="userSpaceOnUse">
      <stop offset="0" stop-color="#FFFFFF"/>
      <stop offset="1" stop-color="#D8E9FF"/>
    </linearGradient>
    <linearGradient id="door" x1="204" y1="164" x2="306" y2="344" gradientUnits="userSpaceOnUse">
      <stop offset="0" stop-color="#FDFEFF"/>
      <stop offset="1" stop-color="#D4E5FF"/>
    </linearGradient>
    <radialGradient id="shine" cx="0" cy="0" r="1" gradientTransform="translate(150 106) rotate(45) scale(274 218)" gradientUnits="userSpaceOnUse">
      <stop offset="0" stop-color="#FFFFFF" stop-opacity="0.92"/>
      <stop offset="0.42" stop-color="#FFFFFF" stop-opacity="0.24"/>
      <stop offset="1" stop-color="#FFFFFF" stop-opacity="0"/>
    </radialGradient>
    <radialGradient id="ambient" cx="0" cy="0" r="1" gradientTransform="translate(396 404) rotate(-131) scale(224 188)" gradientUnits="userSpaceOnUse">
      <stop offset="0" stop-color="#7AF6DD" stop-opacity="0.34"/>
      <stop offset="1" stop-color="#7AF6DD" stop-opacity="0"/>
    </radialGradient>
    <filter id="shadow" x="104" y="74" width="304" height="364" filterUnits="userSpaceOnUse" color-interpolation-filters="sRGB">
      <feDropShadow dx="0" dy="18" stdDeviation="18" flood-color="#0A245D" flood-opacity="0.28"/>
    </filter>
  </defs>

  <rect width="512" height="512" rx="118" fill="url(#bg)"/>
  <circle cx="130" cy="108" r="170" fill="url(#shine)"/>
  <circle cx="390" cy="402" r="150" fill="url(#ambient)"/>
  <path d="M72 398C134 340 196 314 266 314C344 314 415 350 468 406V512H72V398Z" fill="#08235D" opacity="0.16"/>

  <g filter="url(#shadow)">
    <rect x="150" y="106" width="212" height="300" rx="58" fill="url(#glass)"/>
    <rect x="182" y="146" width="148" height="214" rx="36" fill="url(#door)"/>
    <rect x="253" y="146" width="6" height="214" rx="3" fill="#3373E8" opacity="0.95"/>
    <rect x="196" y="126" width="120" height="24" rx="12" fill="#E9F3FF"/>
    <path d="M224 150L242 124L260 150H247V156H237V150H224Z" fill="#3787FF"/>
    <path d="M288 124L270 150L252 124H265V118H275V124H288Z" fill="#33D2A0"/>
    <rect x="214" y="210" width="18" height="84" rx="9" fill="#8CB7F7"/>
    <rect x="280" y="210" width="18" height="84" rx="9" fill="#8CB7F7"/>
    <rect x="184" y="378" width="144" height="16" rx="8" fill="#9FC1FF"/>
  </g>

  <path d="M118 74C162 54 218 44 278 50C332 56 382 78 418 114" fill="none" stroke="#FFFFFF" stroke-opacity="0.30" stroke-width="18" stroke-linecap="round"/>
  <rect x="30" y="30" width="452" height="452" rx="114" fill="none" stroke="#FFFFFF" stroke-opacity="0.08" stroke-width="3"/>
</svg>
